<?xml version="1.0" encoding="utf-8"?><svg viewBox="0 0 54 72.938" xmlns="http://www.w3.org/2000/svg" xmlns:xlink="http://www.w3.org/1999/xlink"><style>:root>svg{display:none}:root>svg:target{display:block}</style><svg viewBox="0 0 18 24" id="icon-cart" xmlns="http://www.w3.org/2000/svg"><defs><style>.acls-1{fill-rule:evenodd;filter:url(#afilter)}</style><filter id="afilter" x="1476" y="55" width="18" height="24" filterUnits="userSpaceOnUse"><feFlood result="flood" flood-color="#fff"/><feComposite result="composite" operator="in" in2="SourceGraphic"/><feBlend result="blend" in2="SourceGraphic"/></filter></defs><path id="aicon-cart" class="acls-1" d="M1491 58h-1.5c0-1.657-2.02-3-4.5-3s-4.5 1.344-4.5 3h-1.5a3 3 0 0 0-3 3v15a3 3 0 0 0 3 3h12a3 3 0 0 0 2.99-3V61a3 3 0 0 0-2.99-3zm-6-1.5c1.66 0 3 .464 3 1.5h-6c0-1.038 1.34-1.5 3-1.5zm7.49 19.5a1.5 1.5 0 0 1-1.49 1.5h-12a1.5 1.5 0 0 1-1.5-1.5v-1.5h14.99V76zm0-3h-14.99V61a1.5 1.5 0 0 1 1.5-1.5h1.5V64h1.5v-4.5h6V64h1.5v-4.5h1.5a1.5 1.5 0 0 1 1.49 1.5v12z" transform="translate(-1476 -55)"/></svg><svg viewBox="0 0 10.156 17.906" id="icon-fb" xmlns="http://www.w3.org/2000/svg"><defs><style>.bcls-1{fill:#171717;fill-rule:evenodd}</style></defs><path id="bfb" class="bcls-1" d="M31.781 378h-2.438a4.177 4.177 0 0 0-4.509 4.4v2.031h-2.451a.374.374 0 0 0-.383.369v2.943a.374.374 0 0 0 .383.365h2.451v7.425a.375.375 0 0 0 .383.365h3.2a.375.375 0 0 0 .383-.365v-7.425h2.866a.374.374 0 0 0 .383-.365V384.8a.357.357 0 0 0-.112-.258.392.392 0 0 0-.271-.107H28.8v-1.722c0-.827.207-1.248 1.339-1.248h1.643a.374.374 0 0 0 .383-.365v-2.733a.374.374 0 0 0-.384-.367z" transform="translate(-22 -378)"/></svg><svg viewBox="0 0 47.594 47.59" id="icon-feat-1" xmlns="http://www.w3.org/2000/svg"><defs><style>.ccls-1{fill-rule:evenodd;filter:url(#cfilter)}</style><filter id="cfilter" x="487.531" y="1104.88" width="47.594" height="47.59" filterUnits="userSpaceOnUse"><feFlood result="flood" flood-color="#555"/><feComposite result="composite" operator="in" in2="SourceGraphic"/><feBlend result="blend" in2="SourceGraphic"/></filter></defs><path id="cicon" class="ccls-1" d="M534.668 1121.47a1.591 1.591 0 0 0-2.248 0l-13.847 13.84-19.467 8.58-3-3 8.576-19.47 13.844-13.84a1.59 1.59 0 1 0-2.248-2.25l-14.268 14.26-14.477 32.87 32.868-14.47 14.266-14.27a1.592 1.592 0 0 0 .001-2.25zm-20.173 11a1.606 1.606 0 0 0 2.25 0l13.332-13.34a1.591 1.591 0 0 0-2.25-2.25l-13.327 13.34a1.593 1.593 0 0 0 0 2.25zm-3.48-3.48a1.606 1.606 0 0 0 2.25 0l13.333-13.34a1.591 1.591 0 0 0-2.25-2.25l-13.333 13.33a1.6 1.6 0 0 0 0 2.26zm-3.481-3.49a1.581 1.581 0 0 0 2.25 0l13.333-13.33a1.591 1.591 0 0 0-2.25-2.25l-13.333 13.33a1.593 1.593 0 0 0 0 2.25z" transform="translate(-487.531 -1104.88)"/></svg><svg viewBox="0 0 42.875 39.19" id="icon-feat-2" xmlns="http://www.w3.org/2000/svg"><defs><style>.dcls-1{fill-rule:evenodd;filter:url(#dfilter)}</style><filter id="dfilter" x="790.406" y="1113.09" width="42.875" height="39.19" filterUnits="userSpaceOnUse"><feFlood result="flood" flood-color="#c7b299"/><feComposite result="composite" operator="in" in2="SourceGraphic"/><feBlend result="blend" in2="SourceGraphic"/></filter></defs><path id="dicon" class="dcls-1" d="M811.851 1113.11l-21.437 11.56 21.437 11.56 21.436-11.56zm0 26.85l-17.452-9.41-3.985 2.15 21.437 11.55 21.436-11.55-3.985-2.15zm0 8.02l-17.452-9.41-3.985 2.15 21.437 11.56 21.436-11.56-3.985-2.15z" transform="translate(-790.406 -1113.09)"/></svg><svg viewBox="0 0 43.56 43.57" id="icon-feat-3" xmlns="http://www.w3.org/2000/svg"><defs><style>.ecls-1{fill-rule:evenodd;filter:url(#efilter)}</style><filter id="efilter" x="1089.38" y="1108.06" width="43.56" height="43.57" filterUnits="userSpaceOnUse"><feFlood result="flood" flood-color="#555"/><feComposite result="composite" operator="in" in2="SourceGraphic"/><feBlend result="blend" in2="SourceGraphic"/></filter></defs><path id="eicon" class="ecls-1" d="M1132.93 1129.85a4.327 4.327 0 0 0-2.61-3.86 4.623 4.623 0 0 1-2.88-6.97 4.161 4.161 0 0 0-5.46-5.46 6.019 6.019 0 0 1-4.23.35 5.937 5.937 0 0 1-2.74-3.24 4.173 4.173 0 0 0-7.73 0 4.634 4.634 0 0 1-6.97 2.89 4.161 4.161 0 0 0-5.46 5.46 4.636 4.636 0 0 1-2.88 6.97 4.159 4.159 0 0 0 0 7.72 4.623 4.623 0 0 1 2.88 6.97 4.161 4.161 0 0 0 5.46 5.46 4.634 4.634 0 0 1 6.97 2.89 4.173 4.173 0 0 0 7.73 0 4.628 4.628 0 0 1 6.97-2.89 4.161 4.161 0 0 0 5.46-5.46 4.623 4.623 0 0 1 2.88-6.97 4.327 4.327 0 0 0 2.61-3.86zm-21.79 7.99a7.985 7.985 0 1 1 7.99-7.98 7.979 7.979 0 0 1-7.99 7.98z" transform="translate(-1089.38 -1108.06)"/></svg><svg viewBox="0 0 50.88 35.63" id="icon-feat-4" xmlns="http://www.w3.org/2000/svg"><defs><style>.fcls-1{fill-rule:evenodd;filter:url(#ffilter)}</style><filter id="ffilter" x="1388.75" y="1116.34" width="50.88" height="35.63" filterUnits="userSpaceOnUse"><feFlood result="flood" flood-color="#555"/><feComposite result="composite" operator="in" in2="SourceGraphic"/><feBlend result="blend" in2="SourceGraphic"/></filter></defs><path id="ficon" class="fcls-1" d="M1397 1129.25a6.787 6.787 0 0 1 5.74-3.61h26.21v-1.66a2.482 2.482 0 0 0-2.46-2.48h-10.82v-1.44a3.707 3.707 0 0 0-3.68-3.73h-6.29a3.722 3.722 0 0 0-3.69 3.73v1.44h-10.81a2.475 2.475 0 0 0-2.46 2.48v22.17zm7.47-9.19a1.266 1.266 0 0 1 .36-.88 1.185 1.185 0 0 1 .87-.36h6.29a1.231 1.231 0 0 1 1.23 1.24v1.44h-8.75v-1.44zm25.45 29.7a4.319 4.319 0 0 1-3.54 2.22h-35.3a1.417 1.417 0 0 1-1.37-2.22l9.49-19.42a4.333 4.333 0 0 1 3.54-2.22h35.3a1.417 1.417 0 0 1 1.37 2.22z" transform="translate(-1388.75 -1116.34)"/></svg><svg viewBox="0 0 17.781 14.344" id="icon-google" xmlns="http://www.w3.org/2000/svg"><defs><style>.gcls-1{fill:#171717;fill-rule:evenodd}</style></defs><path id="gg_" data-name="g+" class="gcls-1" d="M37.862 508.28h-6.371v2.227h3.887a4.582 4.582 0 0 1-4.342 3.341 4.778 4.778 0 0 1 0-9.546 4.433 4.433 0 0 1 3.235 1.417l1.541-1.758a6.648 6.648 0 0 0-4.776-2.045 7.162 7.162 0 1 0 6.826 8.591v-2.227zm4.137 0H40.7v-1.367h-1.121v1.367h-1.3v1.172h1.3v1.366H40.7v-1.366H42v-1.172z" transform="translate(-24.219 -501.906)"/></svg><svg viewBox="0 0 18.75 19.187" id="icon-insta" xmlns="http://www.w3.org/2000/svg"><defs><style>.hcls-1{fill:#171717;fill-rule:evenodd}</style></defs><path id="hinsta" class="hcls-1" d="M35.575 560.822h-8.4A5.24 5.24 0 0 0 22 566.114v8.593A5.24 5.24 0 0 0 27.174 580h8.4a5.24 5.24 0 0 0 5.174-5.292v-8.593a5.24 5.24 0 0 0-5.173-5.293zm3.511 13.885a3.556 3.556 0 0 1-3.511 3.591h-8.4a3.556 3.556 0 0 1-3.511-3.591v-8.593a3.556 3.556 0 0 1 3.511-3.591h8.4a3.556 3.556 0 0 1 3.511 3.591v8.593zm-7.711-9.237a4.942 4.942 0 1 0 4.831 4.941 4.892 4.892 0 0 0-4.832-4.941zm0 8.181a3.241 3.241 0 1 1 3.168-3.24 3.209 3.209 0 0 1-3.169 3.24zm5.034-9.624a1.209 1.209 0 0 0-.862.365 1.266 1.266 0 0 0 0 1.765 1.2 1.2 0 0 0 1.725 0 1.269 1.269 0 0 0 0-1.765 1.209 1.209 0 0 0-.864-.365z" transform="translate(-22 -560.813)"/></svg><svg viewBox="0 0 40 72.938" id="icon-next" xmlns="http://www.w3.org/2000/svg"><defs><style>.icls-1{fill-rule:evenodd;filter:url(#ifilter)}</style><filter id="ifilter" x="1730" y="475.031" width="40" height="72.938" filterUnits="userSpaceOnUse"><feFlood result="flood" flood-color="#d3c1ad"/><feComposite result="composite" operator="in" in2="SourceGraphic"/><feBlend result="blend" in2="SourceGraphic"/></filter></defs><path id="iright" class="icls-1" d="M1731.97 547.979L1770 511.5l-38.03-36.48-1.97 2 35.93 34.476-35.93 34.481z" transform="translate(-1730 -475.031)"/></svg><svg viewBox="0 0 40 72.938" id="icon-prev" xmlns="http://www.w3.org/2000/svg"><defs><style>.jcls-1{fill-rule:evenodd;opacity:.5;filter:url(#jfilter)}</style><filter id="jfilter" x="150" y="475.031" width="40" height="72.938" filterUnits="userSpaceOnUse"><feFlood result="flood" flood-color="#000"/><feComposite result="composite" operator="in" in2="SourceGraphic"/><feBlend result="blend" in2="SourceGraphic"/></filter></defs><path id="jleft" class="jcls-1" d="M188.026 547.979L150.005 511.5l38.021-36.48 1.969 2-35.929 34.48L190 545.977z" transform="translate(-150 -475.031)"/></svg><svg viewBox="0 0 24 24" id="icon-search" xmlns="http://www.w3.org/2000/svg"><defs><style>.kcls-1{fill-rule:evenodd;filter:url(#kfilter)}</style><filter id="kfilter" x="1522" y="55" width="24" height="24" filterUnits="userSpaceOnUse"><feFlood result="flood" flood-color="#fff"/><feComposite result="composite" operator="in" in2="SourceGraphic"/><feBlend result="blend" in2="SourceGraphic"/></filter></defs><path id="kicon-search" class="kcls-1" d="M1545.76 77.682l-6.19-6.095a9.807 9.807 0 0 0 2.62-6.658 10.1 10.1 0 1 0-10.1 9.934 10.183 10.183 0 0 0 6.36-2.218l6.21 6.12a.788.788 0 0 0 1.1 0 .763.763 0 0 0 0-1.083zm-13.67-4.348a8.406 8.406 0 1 1 8.54-8.405 8.477 8.477 0 0 1-8.54 8.405z" transform="translate(-1522 -55)"/></svg><svg viewBox="0 0 48 44" id="icon-stats-cup" xmlns="http://www.w3.org/2000/svg"><defs><style>.lcls-1{fill-rule:evenodd;filter:url(#lfilter)}</style><filter id="lfilter" x="736" y="4878" width="48" height="44" filterUnits="userSpaceOnUse"><feFlood result="flood" flood-color="#c7b299"/><feComposite result="composite" operator="in" in2="SourceGraphic"/><feBlend result="blend" in2="SourceGraphic"/></filter></defs><path id="licon" class="lcls-1" d="M782.043 4920.75a1.242 1.242 0 0 1-1.234 1.25h-43.575a1.25 1.25 0 0 1 0-2.5h43.575a1.242 1.242 0 0 1 1.234 1.25zm-24.274-20.54a1.215 1.215 0 0 0 1.744-.06 1.266 1.266 0 0 0-.06-1.77c-2.116-2-1.663-6.07.155-8.37 2.467-3.12 3.01-8.68-.155-11.67a1.219 1.219 0 0 0-1.744.06 1.266 1.266 0 0 0 .06 1.77c1.9 1.79 1.858 5.82-.087 8.28a10.169 10.169 0 0 0-2.1 5.95 7.571 7.571 0 0 0 2.187 5.81zm26.231-2.6v2.4a6.205 6.205 0 0 1-6.154 6.24h-2.755a13.513 13.513 0 0 1-12.686 9.05h-6.766a13.579 13.579 0 0 1-13.476-13.66v-12.41a1.242 1.242 0 0 1 1.234-1.25h7.915c1.606-2.48 1.535-6.13-.249-7.81a1.266 1.266 0 0 1-.06-1.77 1.219 1.219 0 0 1 1.744-.06c3.164 2.99 2.621 8.55.155 11.67-1.819 2.3-2.272 6.37-.155 8.37a1.266 1.266 0 0 1 .06 1.77 1.219 1.219 0 0 1-1.744.06 7.571 7.571 0 0 1-2.184-5.81 10.44 10.44 0 0 1 .881-3.92h-5.13v11.16a11.094 11.094 0 0 0 11.009 11.16h6.766a11.093 11.093 0 0 0 11.008-11.16v-11.16h-9.278a1.25 1.25 0 0 1 0-2.5h10.512a1.242 1.242 0 0 1 1.234 1.25v2.15h1.965a6.2 6.2 0 0 1 6.154 6.23zm-2.468 0a3.711 3.711 0 0 0-3.686-3.73h-1.965v9.87h1.965a3.719 3.719 0 0 0 3.686-3.74v-2.4z" transform="translate(-736 -4878)"/></svg><svg viewBox="0 0 44 44" id="icon-stats-figure" xmlns="http://www.w3.org/2000/svg"><defs><style>.mcls-1{fill-rule:evenodd;filter:url(#mfilter)}</style><filter id="mfilter" x="540" y="4878" width="44" height="44" filterUnits="userSpaceOnUse"><feFlood result="flood" flood-color="#c7b299"/><feComposite result="composite" operator="in" in2="SourceGraphic"/><feBlend result="blend" in2="SourceGraphic"/></filter></defs><path id="micon" class="mcls-1" d="M559.937 4908.25c5.688 0 10.313-5.63 10.313-12.55s-4.625-12.54-10.313-12.54a9.441 9.441 0 0 0-7.394 3.78 14.037 14.037 0 0 0-2.918 8.76c0 6.92 4.625 12.55 10.312 12.55zm0-22.34c4.17 0 7.563 4.39 7.563 9.79s-3.393 9.8-7.563 9.8-7.562-4.39-7.565-9.8 3.393-9.79 7.565-9.79zm8.661 20.96a1.375 1.375 0 1 0 0 2.75 8.541 8.541 0 0 1 8.527 8.53 1.1 1.1 0 0 1-1.1 1.1h-32.177a1.1 1.1 0 0 1-1.1-1.1 8.539 8.539 0 0 1 8.524-8.53 1.375 1.375 0 1 0 0-2.75A11.289 11.289 0 0 0 540 4918.15a3.856 3.856 0 0 0 3.848 3.85h32.176a3.857 3.857 0 0 0 3.851-3.85 11.292 11.292 0 0 0-11.275-11.28zm-7.655-25.24a6.084 6.084 0 0 1 3.119-.88c4.17 0 7.563 4.4 7.563 9.8a12.42 12.42 0 0 1-.32 2.83 1.379 1.379 0 0 0 1.024 1.65 1.688 1.688 0 0 0 .315.03 1.369 1.369 0 0 0 1.338-1.06 15.2 15.2 0 0 0 .393-3.45c0-6.92-4.625-12.55-10.313-12.55a8.936 8.936 0 0 0-4.518 1.26 1.376 1.376 0 0 0 1.399 2.37zM573 4901.37a1.375 1.375 0 1 0 0 2.75 8.386 8.386 0 0 1 8.25 8.62 1.068 1.068 0 0 1-.094.45 1.38 1.38 0 0 0 .7 1.82 1.4 1.4 0 0 0 1.816-.7 3.878 3.878 0 0 0 .33-1.57A11.142 11.142 0 0 0 573 4901.37z" transform="translate(-540 -4878)"/></svg><svg viewBox="0 0 54 44" id="icon-stats-launch" xmlns="http://www.w3.org/2000/svg"><defs><style>.ncls-1{fill-rule:evenodd;filter:url(#nfilter)}</style><filter id="nfilter" x="1333" y="4878" width="54" height="44" filterUnits="userSpaceOnUse"><feFlood result="flood" flood-color="#c7b299"/><feComposite result="composite" operator="in" in2="SourceGraphic"/><feBlend result="blend" in2="SourceGraphic"/></filter></defs><path id="nicon" class="ncls-1" d="M1385.31 4918.61h-50.62a1.7 1.7 0 0 0 0 3.39h50.62a1.7 1.7 0 0 0 0-3.39zm-23.62-33.84v-3.38h3.37a1.7 1.7 0 0 0 0-3.39h-10.12a1.7 1.7 0 0 0 0 3.39h3.37s-.01 3.52 0 3.38a27.1 27.1 0 0 0-25.31 27.07v1.7a1.694 1.694 0 0 0 1.69 1.69h50.62a1.694 1.694 0 0 0 1.69-1.69v-1.7a27.1 27.1 0 0 0-25.31-27.07zm-25.31 27.07a23.62 23.62 0 1 1 47.24 0h-47.24z" transform="translate(-1333 -4878)"/></svg><svg viewBox="0 0 44 44" id="icon-stats-like" xmlns="http://www.w3.org/2000/svg"><defs><style>.ocls-1{fill-rule:evenodd;filter:url(#ofilter)}</style><filter id="ofilter" x="1139" y="4878" width="44" height="44" filterUnits="userSpaceOnUse"><feFlood result="flood" flood-color="#c7b299"/><feComposite result="composite" operator="in" in2="SourceGraphic"/><feBlend result="blend" in2="SourceGraphic"/></filter></defs><path id="oicon" class="ocls-1" d="M1169.25 4878c-.42 0-.85.03-1.27.06l-.46.06c-.25.03-.51.07-.76.12-.19.03-.38.07-.56.11-.21.05-.42.11-.63.16s-.39.11-.59.18a5.442 5.442 0 0 0-.52.19 12.305 12.305 0 0 0-1.34.58 2.1 2.1 0 0 0-.26.13c-.23.12-.45.25-.68.39-.12.07-.24.14-.36.22-.22.14-.42.28-.63.43a2.141 2.141 0 0 1-.19.13 13.74 13.74 0 0 0-22 10.99c0 12.44 8 23.7 21.41 30.11a1.313 1.313 0 0 0 1.18 0c13.41-6.41 21.41-17.67 21.41-30.11a13.768 13.768 0 0 0-13.75-13.75zm-8.25 41.1c-12.07-5.99-19.25-16.17-19.25-27.35a10.974 10.974 0 0 1 17.19-9.07 13.728 13.728 0 0 0-3.44 9.07 1.375 1.375 0 0 0 2.75 0 11.007 11.007 0 0 1 3.72-8.23c.21-.19.43-.36.66-.53l.15-.12c.22-.16.44-.31.67-.45.06-.04.13-.08.19-.12.22-.13.45-.25.68-.37l.24-.12c.22-.1.45-.2.67-.29.1-.04.2-.07.31-.11.21-.08.43-.15.64-.21.14-.04.26-.08.4-.11.2-.05.39-.1.59-.14.18-.03.37-.05.55-.08.15-.02.31-.05.47-.07.35-.03.7-.05 1.06-.05a11.007 11.007 0 0 1 11 11c0 11.18-7.18 21.36-19.25 27.35zm8.25-35.6a1.375 1.375 0 1 0 0 2.75 5.51 5.51 0 0 1 5.5 5.5 1.375 1.375 0 0 0 2.75 0 8.258 8.258 0 0 0-8.25-8.25z" transform="translate(-1139 -4878)"/></svg><svg viewBox="0 0 44 44" id="icon-stats-post" xmlns="http://www.w3.org/2000/svg"><defs><style>.pcls-1{fill-rule:evenodd;filter:url(#pfilter)}</style><filter id="pfilter" x="939" y="4878" width="44" height="44" filterUnits="userSpaceOnUse"><feFlood result="flood" flood-color="#c7b299"/><feComposite result="composite" operator="in" in2="SourceGraphic"/><feBlend result="blend" in2="SourceGraphic"/></filter></defs><path id="picon" class="pcls-1" d="M967.873 4901.37h-13.747a1.375 1.375 0 1 0 0 2.75h13.747a1.375 1.375 0 1 0 0-2.75zm2.749-8.24h-19.246a1.37 1.37 0 1 0 0 2.74h19.246a1.37 1.37 0 1 0 0-2.74zM961 4878c-12.147 0-22 8.62-22 19.25a18.431 18.431 0 0 0 8.249 15.01v9.74l9.635-5.85a25.236 25.236 0 0 0 4.112.35c12.149 0 22-8.62 22-19.25S973.148 4878 961 4878zm0 35.75a22.075 22.075 0 0 1-4.646-.51l-6.473 3.89.087-6.37c-4.962-2.99-8.214-7.92-8.214-13.51 0-9.11 8.617-16.5 19.246-16.5s19.247 7.39 19.247 16.5-8.618 16.5-19.247 16.5z" transform="translate(-939 -4878)"/></svg></svg>